<svg xmlns="http://www.w3.org/2000/svg" width="560" height="220" viewBox="0 0 560 220" fill="none"><path d="M22 190h516" stroke="#C49A3A" stroke-width="2" opacity=".55"/><path d="M48 190V108h42v82M64 108V75h18v33" stroke="#C49A3A" stroke-width="3" stroke-linejoin="round" opacity=".7"/><path d="M115 190V92h68v98M132 92V62h34v30" stroke="#C49A3A" stroke-width="3" stroke-linejoin="round" opacity=".7"/><path d="M208 190V116h76v74M228 116V88h36v28" stroke="#C49A3A" stroke-width="3" stroke-linejoin="round" opacity=".7"/><path d="M318 190V72c0-24 20-44 44-44s44 20 44 44v118" stroke="#C49A3A" stroke-width="3" opacity=".7"/><path d="M338 190V82c0-13 11-24 24-24s24 11 24 24v108" stroke="#C49A3A" stroke-width="3" opacity=".7"/><path d="M436 190V102h66v88M454 102V76h30v26" stroke="#C49A3A" stroke-width="3" stroke-linejoin="round" opacity=".7"/><path d="M30 126c30-21 48-21 77 0M190 122c33-22 58-24 92 0M410 124c34-22 62-23 96 0" stroke="#C49A3A" stroke-width="2" opacity=".45"/></svg>
